<?xml version="1.0" standalone="no"?>
<!DOCTYPE svg PUBLIC "-//W3C//DTD SVG 20010904//EN"
 "http://www.w3.org/TR/2001/REC-SVG-20010904/DTD/svg10.dtd">
<svg version="1.0" xmlns="http://www.w3.org/2000/svg"
 width="59.000000pt" height="44.000000pt" viewBox="0 0 59.000000 44.000000"
 preserveAspectRatio="xMidYMid meet">

<g transform="translate(0.000000,44.000000) scale(0.100000,-0.100000)"
fill="#000000" stroke="none">
<path d="M4 397 c-2 -7 -3 -91 -2 -187 l3 -175 43 -3 42 -3 0 145 0 146 80 0
80 0 0 -83 c0 -70 -3 -87 -19 -101 -25 -22 -54 -14 -69 19 -18 39 -40 32 -38
-13 3 -43 19 -77 40 -85 9 -4 70 -6 136 -6 107 0 123 2 140 19 11 11 20 26 21
33 6 72 6 77 -7 77 -8 0 -20 -11 -26 -25 -15 -33 -44 -41 -69 -19 -16 14 -19
31 -19 101 l0 83 80 0 80 0 0 -145 0 -145 40 0 40 0 0 190 0 190 -39 0 c-25 0
-41 -5 -45 -15 -4 -11 -23 -15 -81 -15 -60 0 -75 3 -75 15 0 11 -12 15 -45 15
-33 0 -45 -4 -45 -15 0 -22 -148 -22 -156 0 -8 19 -82 21 -90 2z"/>
</g>
</svg>
